<?xml version="1.0" encoding="UTF-8" standalone="no"?>
<!-- Generator: Adobe Illustrator 18.1.1, SVG Export Plug-In . SVG Version: 6.00 Build 0)  -->

<svg
   xmlns:dc="http://purl.org/dc/elements/1.1/"
   xmlns:cc="http://creativecommons.org/ns#"
   xmlns:rdf="http://www.w3.org/1999/02/22-rdf-syntax-ns#"
   xmlns:svg="http://www.w3.org/2000/svg"
   xmlns="http://www.w3.org/2000/svg"
   xmlns:sodipodi="http://sodipodi.sourceforge.net/DTD/sodipodi-0.dtd"
   xmlns:inkscape="http://www.inkscape.org/namespaces/inkscape"
   version="1.1"
   id="Capa_1"
   x="0px"
   y="0px"
   viewBox="0 0 29.2 29.2"
   style="enable-background:new 0 0 29.2 29.2;"
   xml:space="preserve"
   inkscape:version="0.91 r13725"
   sodipodi:docname="phone_tx.svg"><metadata
     id="metadata71"><rdf:RDF><cc:Work
         rdf:about=""><dc:format>image/svg+xml</dc:format><dc:type
           rdf:resource="http://purl.org/dc/dcmitype/StillImage" /><dc:title></dc:title></cc:Work></rdf:RDF></metadata><defs
     id="defs69" /><sodipodi:namedview
     pagecolor="#ffffff"
     bordercolor="#666666"
     borderopacity="1"
     objecttolerance="10"
     gridtolerance="10"
     guidetolerance="10"
     inkscape:pageopacity="0"
     inkscape:pageshadow="2"
     inkscape:window-width="1920"
     inkscape:window-height="1018"
     id="namedview67"
     showgrid="false"
     inkscape:zoom="8.0821916"
     inkscape:cx="-3.6500001"
     inkscape:cy="14.6"
     inkscape:window-x="-8"
     inkscape:window-y="-8"
     inkscape:window-maximized="1"
     inkscape:current-layer="Capa_1" /><g
     id="g3"><path
       d="M24.905,26.431v-0.007l-3.813-6.445c-0.292-0.5-0.926-0.652-1.417-0.364l-2.271,1.346l0.187,0.314   c-1.006,0.452-1.898-0.569-3.48-2.714l-3.252-5.49c-0.643-1.404-1.15-2.83-0.174-3.519l0.104,0.178l2.27-1.342V8.383   c0.521-0.308,0.645-0.95,0.363-1.423V6.956L9.609,0.51c-0.291-0.5-0.926-0.654-1.416-0.364l-2.27,1.346l0.139,0.231   C4.805,2.758,1.66,7.643,7.899,18.479c6.475,11.246,12.645,11.176,14.21,10.448l0.159,0.273l2.271-1.341v-0.003   C25.061,27.546,25.183,26.905,24.905,26.431z"
       id="path5" /><g
       id="g7" /><g
       id="g9" /><g
       id="g11" /><g
       id="g13" /><g
       id="g15" /><g
       id="g17" /><g
       id="g19" /><g
       id="g21" /><g
       id="g23" /><g
       id="g25" /><g
       id="g27" /><g
       id="g29" /><g
       id="g31" /><g
       id="g33" /><g
       id="g35" /></g><g
     id="g37" /><g
     id="g39" /><g
     id="g41" /><g
     id="g43" /><g
     id="g45" /><g
     id="g47" /><g
     id="g49" /><g
     id="g51" /><g
     id="g53" /><g
     id="g55" /><g
     id="g57" /><g
     id="g59" /><g
     id="g61" /><g
     id="g63" /><g
     id="g65" /><path
     style="fill:#000000;fill-opacity:0;stroke:#000000;stroke-width:2;stroke-miterlimit:4;stroke-dasharray:none;stroke-opacity:1"
     id="path3415"
     sodipodi:type="arc"
     sodipodi:cx="-13.929139"
     sodipodi:cy="16.635033"
     sodipodi:rx="5.7487369"
     sodipodi:ry="5.623116"
     sodipodi:start="0"
     sodipodi:end="1.9742636"
     sodipodi:open="true"
     d="m -8.1804023,16.635033 a 5.7487369,5.623116 0 0 1 -2.5806917,4.692202 5.7487369,5.623116 0 0 1 -5.425054,0.479407"
     transform="matrix(0,-1,1,0,0,0)" /><path
     style="fill:#000000;fill-opacity:0;stroke:#000000;stroke-width:2;stroke-miterlimit:4;stroke-dasharray:none;stroke-opacity:1"
     id="path3415-7"
     sodipodi:type="arc"
     sodipodi:cx="-13.874291"
     sodipodi:cy="16.393913"
     sodipodi:rx="10.03607"
     sodipodi:ry="9.8167629"
     sodipodi:start="0"
     sodipodi:end="1.9742636"
     sodipodi:open="true"
     d="m -3.8382215,16.393913 a 10.03607,9.8167629 0 0 1 -4.5053374,8.191586 10.03607,9.8167629 0 0 1 -9.4709891,0.836943"
     transform="matrix(0,-1,1,0,0,0)" /></svg>