<?xml version="1.0" encoding="iso-8859-1"?>
<!-- Generator: Adobe Illustrator 18.1.1, SVG Export Plug-In . SVG Version: 6.00 Build 0)  -->
<svg version="1.1" id="Capa_1" xmlns="http://www.w3.org/2000/svg" xmlns:xlink="http://www.w3.org/1999/xlink" x="0px" y="0px"
	 viewBox="0 0 29.2 29.2" style="enable-background:new 0 0 29.2 29.2;" xml:space="preserve">
<g>
	<path d="M24.905,26.431v-0.007l-3.813-6.445c-0.292-0.5-0.926-0.652-1.417-0.364l-2.271,1.346l0.187,0.314
		c-1.006,0.452-1.898-0.569-3.48-2.714l-3.252-5.49c-0.643-1.404-1.15-2.83-0.174-3.519l0.104,0.178l2.27-1.342V8.383
		c0.521-0.308,0.645-0.95,0.363-1.423V6.956L9.609,0.51c-0.291-0.5-0.926-0.654-1.416-0.364l-2.27,1.346l0.139,0.231
		C4.805,2.758,1.66,7.643,7.899,18.479c6.475,11.246,12.645,11.176,14.21,10.448l0.159,0.273l2.271-1.341v-0.003
		C25.061,27.546,25.183,26.905,24.905,26.431z"/>
	<g>
	</g>
	<g>
	</g>
	<g>
	</g>
	<g>
	</g>
	<g>
	</g>
	<g>
	</g>
	<g>
	</g>
	<g>
	</g>
	<g>
	</g>
	<g>
	</g>
	<g>
	</g>
	<g>
	</g>
	<g>
	</g>
	<g>
	</g>
	<g>
	</g>
</g>
<g>
</g>
<g>
</g>
<g>
</g>
<g>
</g>
<g>
</g>
<g>
</g>
<g>
</g>
<g>
</g>
<g>
</g>
<g>
</g>
<g>
</g>
<g>
</g>
<g>
</g>
<g>
</g>
<g>
</g>
</svg>
